<?xml version="1.0" encoding="UTF-8" standalone="no"?>
<!-- Generator: Adobe Illustrator 19.0.0, SVG Export Plug-In . SVG Version: 6.00 Build 0)  -->

<svg
   version="1.1"
   id="Layer_1"
   x="0px"
   y="0px"
   viewBox="0 0 490.05 490.05"
   style="enable-background:new 0 0 490.05 490.05;"
   xml:space="preserve"
   sodipodi:docname="baseline-settings-20px.svg"
   inkscape:version="1.2-alpha1 (1:1.2.0-alpha1+devel+202203211746+a3054d06db)"
   xmlns:inkscape="http://www.inkscape.org/namespaces/inkscape"
   xmlns:sodipodi="http://sodipodi.sourceforge.net/DTD/sodipodi-0.dtd"
   xmlns="http://www.w3.org/2000/svg"
   xmlns:svg="http://www.w3.org/2000/svg">
   <defs
   id="defs205" />
   <sodipodi:namedview
   id="namedview203"
   pagecolor="#ffffff"
   bordercolor="#666666"
   borderopacity="1.0"
   inkscape:pageshadow="2"
   inkscape:pageopacity="0.0"
   inkscape:pagecheckerboard="0"
   inkscape:deskcolor="#d1d1d1"
   showgrid="false"
   inkscape:zoom="0.81236839"
   inkscape:cx="217.26596"
   inkscape:cy="289.27763"
   inkscape:window-width="1366"
   inkscape:window-height="714"
   inkscape:window-x="1920"
   inkscape:window-y="339"
   inkscape:window-maximized="1"
   inkscape:current-layer="g168" />
   <g
   id="g170">
      <g
   id="g168">
         <path
   style="fill:#546a79;fill-opacity:1;stroke-width:0.70626"
   d="m 248.64458,415.11016 17.30338,-7.13323 c 9.25202,-3.81381 13.63083,-14.47834 9.81702,-23.65972 l -4.44944,-10.73516 c 8.68701,-6.42697 16.24399,-14.05458 22.74159,-22.74159 l 10.73516,4.44944 c 4.44944,1.83628 9.39326,1.83628 13.8427,0 4.44944,-1.83627 7.98074,-5.36757 9.81702,-9.81702 l 7.20386,-17.30338 c 3.8138,-9.25201 -0.56501,-19.84591 -9.81702,-23.65972 l -15.89086,-6.56822 c -3.60193,-1.48315 -7.62762,0.21188 -9.11076,3.81381 -1.48315,3.60192 0.21188,7.62761 3.8138,9.11076 l 15.89086,6.56822 c 2.11878,0.84751 3.10755,3.31942 2.26004,5.4382 l -7.20386,17.30338 c -0.42376,0.98877 -1.20064,1.83628 -2.26003,2.26003 -0.98877,0.42376 -2.11878,0.42376 -3.17818,0 l -15.89085,-6.56822 c -3.10755,-1.27127 -6.63885,-0.21187 -8.47513,2.54254 -7.13323,10.73516 -16.17336,19.77529 -26.90852,26.90852 -2.75442,1.83628 -3.88443,5.43821 -2.61316,8.47513 l 6.56822,15.89086 c 0.84751,2.11878 -0.14125,4.52006 -2.26003,5.4382 l -17.30338,7.13323 c -0.98877,0.42376 -2.11879,0.42376 -3.17818,0 -0.98876,-0.42376 -1.83627,-1.20064 -2.26003,-2.26003 l -6.56822,-15.89086 c -1.27127,-3.10755 -4.52007,-4.8732 -7.83949,-4.16694 -12.57144,2.54254 -25.42538,2.47191 -37.99681,0 -3.2488,-0.63563 -6.56822,1.13002 -7.83949,4.16694 l -6.56822,15.89086 c -0.84752,2.11878 -3.31943,3.10754 -5.43821,2.26003 l -17.30338,-7.20386 c -0.98876,-0.42375 -1.83627,-1.20064 -2.26003,-2.26003 -0.42376,-0.98876 -0.42376,-2.11878 0,-3.17817 l 6.56822,-15.89086 c 1.27127,-3.10755 0.21188,-6.63885 -2.54254,-8.47512 -10.73515,-7.13323 -19.77529,-16.17337 -26.90852,-26.90853 -1.83627,-2.75441 -5.4382,-3.88443 -8.47512,-2.61316 l -15.890861,6.56822 c -1.059391,0.42376 -2.118781,0.42376 -3.178172,0 -0.988765,-0.42375 -1.836277,-1.20064 -2.260033,-2.26003 l -7.13323,-17.30338 c -0.423756,-0.98876 -0.423756,-2.11878 0,-3.17817 0.423756,-0.98877 1.200642,-1.83628 2.260033,-2.26004 l 15.890863,-6.56822 c 3.10754,-1.27127 4.80257,-4.52006 4.16693,-7.83949 -2.54254,-12.57143 -2.47191,-25.42537 0,-37.99681 0.63564,-3.24879 -1.13001,-6.56822 -4.16693,-7.83949 l -15.890863,-6.56822 c -2.118781,-0.84751 -3.107546,-3.31942 -2.260033,-5.4382 l 7.203856,-17.30338 c 0.847512,-2.11878 3.319424,-3.10755 5.438205,-2.26004 l 15.890855,6.56823 c 3.10755,1.27126 6.63885,0.21187 8.47513,-2.54254 7.13323,-10.73516 16.17336,-19.77529 26.90852,-26.90852 2.75442,-1.83628 3.88443,-5.43821 2.61316,-8.47513 l -6.56822,-15.89086 c -0.42375,-0.98876 -0.42375,-2.11878 0,-3.17817 0.42376,-0.98876 1.20064,-1.83628 2.26003,-2.26003 l 17.30338,-7.13323 c 0.98877,-0.42376 2.11879,-0.42376 3.17818,0 0.98876,0.42375 1.83627,1.20064 2.26003,2.26003 l 6.56822,15.89086 c 1.48315,3.60193 5.57946,5.29695 9.11076,3.81381 3.60193,-1.48315 5.29695,-5.57946 3.81381,-9.11076 l -6.56823,-15.89086 c -1.83627,-4.44944 -5.36757,-7.98074 -9.81702,-9.81702 -2.26003,-0.91814 -4.59069,-1.41252 -6.92135,-1.41252 -2.33066,0 -4.73194,0.49438 -6.92135,1.41252 l -17.30338,7.13323 c -4.44944,1.83628 -7.98074,5.36758 -9.81702,9.81702 -1.83627,4.44944 -1.83627,9.39326 0,13.8427 l 4.44944,10.73516 c -8.687,6.42697 -16.24399,14.05458 -22.74158,22.74158 l -10.73516,-4.44944 c -9.252011,-3.8138 -19.845917,0.56501 -23.659723,9.81702 l -7.274482,17.30338 c -3.813807,9.25201 0.565008,19.84592 9.817019,23.65973 l 10.735158,4.44944 c -1.553773,10.66453 -1.553773,21.47031 0,32.13485 l -10.735158,4.44944 c -4.44944,1.83627 -7.980742,5.36757 -9.817019,9.81702 -1.836277,4.44944 -1.836277,9.39326 0,13.8427 l 7.13323,17.30338 c 1.836277,4.44944 5.367579,7.98074 9.817019,9.81702 4.449441,1.83628 9.393263,1.83628 13.842706,0 l 10.73516,-4.44944 c 6.42697,8.687 14.05458,16.24399 22.74158,22.74158 l -4.44944,10.73516 c -1.83628,4.44944 -1.83628,9.39326 0,13.8427 1.83628,4.44944 5.36758,7.98075 9.81702,9.81702 l 17.30338,7.20386 c 9.25201,3.81381 19.84592,-0.56501 23.65972,-9.81702 l 4.44944,-10.73516 c 10.66453,1.55377 21.47032,1.55377 32.13485,0 l 4.44944,10.73516 c 1.83628,4.44944 5.36758,7.98074 9.81702,9.81702 4.44944,1.83628 9.39326,1.83628 13.8427,0 z"
   id="path160" />
         <path
   style="fill:#546a79;fill-opacity:1;stroke-width:0.70626"
   d="m 147.64935,284.38136 c 0.21188,31.21671 25.70788,56.43021 56.85396,56.43021 0.14125,0 0.2825,0 0.42376,0 15.18459,-0.14126 29.45105,-6.14447 40.11559,-16.95025 10.66453,-10.80579 16.45586,-25.14287 16.38524,-40.32747 0,-3.81381 -3.17817,-6.92135 -6.99198,-6.92135 h -0.0706 c -3.88443,0 -6.99197,3.17817 -6.92135,7.0626 0.0706,11.44142 -4.30819,22.2472 -12.35956,30.43982 -8.05136,8.19262 -18.78652,12.71269 -30.22794,12.78332 -0.0706,0 -0.21188,0 -0.2825,0 -23.51848,0 -42.72876,-19.06903 -42.87001,-42.58751 -0.14125,-23.65972 18.92778,-43.01125 42.5875,-43.22313 3.88443,0 6.99198,-3.17817 6.92135,-7.06261 0,-3.8138 -3.17817,-6.92135 -6.99197,-6.92135 0,0 0,0 -0.0706,0 -31.42859,0.21188 -56.71271,25.91976 -56.50083,57.27772 z"
   id="path162" />
         <path
   style="fill:#3c92ca;stroke-width:0.70626"
   d="M 322.51942,73.562633 H 308.8886 c -8.33388,0 -15.11398,6.7801 -15.11398,15.113972 v 6.991978 c -6.7801,1.836277 -13.27769,4.520067 -19.35153,8.051367 l -4.94382,-4.943821 c -2.82505,-2.825042 -6.63885,-4.449441 -10.66454,-4.449441 -4.02568,0 -7.83949,1.553773 -10.66453,4.449441 l -9.60514,9.605141 c -2.82504,2.82504 -4.44944,6.63885 -4.44944,10.66453 0,4.02569 1.55377,7.83949 4.44944,10.66453 l 4.94382,4.94383 c -3.5313,6.07384 -6.21509,12.57143 -8.05136,19.35153 h -6.99198 c -8.33388,0 -15.11398,6.7801 -15.11398,15.11397 v 13.63083 c 0,8.33387 6.7801,15.11397 15.11398,15.11397 h 6.99198 c 1.83627,6.7801 4.52006,13.2777 8.05136,19.35154 l -4.94382,4.94382 c -2.82504,2.82504 -4.44944,6.63885 -4.44944,10.66453 0,4.02569 1.55377,7.83949 4.44944,10.66453 l 9.60514,9.60515 c 2.82504,2.82504 6.63885,4.44944 10.66453,4.44944 4.02569,0 7.83949,-1.55378 10.66454,-4.44944 l 4.94382,-4.94383 c 6.07384,3.5313 12.57143,6.21509 19.35153,8.05137 v 6.99198 c 0,8.33387 6.7801,15.11397 15.11398,15.11397 h 13.63082 c 8.33387,0 15.11397,-6.7801 15.11397,-15.11397 v -6.99198 c 6.7801,-1.83628 13.2777,-4.52007 19.35154,-8.05137 l 4.94382,4.94383 c 2.82504,2.82504 6.63885,4.44944 10.66453,4.44944 4.02569,0 7.83949,-1.55378 10.66454,-4.44944 l 9.60514,-9.60515 c 5.86196,-5.86196 5.86196,-15.4671 0,-21.32906 l -4.94383,-4.94382 c 3.53131,-6.07384 6.2151,-12.57144 8.05137,-19.35154 h 6.99198 c 8.33387,0 15.11397,-6.7801 15.11397,-15.11397 v -13.63083 c 0,-8.33387 -6.7801,-15.11397 -15.11397,-15.11397 h -6.99198 c -1.83627,-6.7801 -4.52006,-13.27769 -8.05137,-19.35153 l 4.94383,-4.94383 c 5.86196,-5.86196 5.86196,-15.4671 0,-21.32906 l -9.60514,-9.605141 c -2.82505,-2.825042 -6.63885,-4.449441 -10.66454,-4.449441 -4.02568,0 -7.83949,1.553773 -10.66453,4.449441 l -4.94382,4.943821 c -6.07384,-3.5313 -12.57144,-6.21509 -19.35154,-8.051367 v -6.991978 c -0.0706,-8.333872 -6.85072,-15.113972 -15.11397,-15.113972 z m 31.56984,44.776907 c 1.20064,0.77689 2.54254,1.20064 3.88443,1.20064 1.83628,0 3.60193,-0.70626 4.94383,-2.04815 l 8.82825,-8.82826 c 0.28251,-0.2825 0.56501,-0.35313 0.77689,-0.35313 0.21188,0 0.49438,0.0706 0.77688,0.35313 l 9.60515,9.60515 c 0.42375,0.42375 0.42375,1.13001 0,1.55377 l -8.82826,8.82825 c -2.33066,2.33066 -2.75441,6.07384 -0.84751,8.82826 5.08507,7.55698 8.54575,15.96148 10.3114,24.86036 0.63563,3.2488 3.5313,5.65009 6.85073,5.65009 h 12.5008 c 0.63564,0 1.13002,0.49438 1.13002,1.13001 v 13.63083 c 0,0.63563 -0.49438,1.13002 -1.13002,1.13002 h -12.5008 c -3.31943,0 -6.2151,2.33066 -6.85073,5.65008 -1.76565,8.89888 -5.22633,17.30338 -10.3114,24.86037 -1.83628,2.75441 -1.48315,6.49759 0.84751,8.82825 l 8.82826,8.82826 c 0.42375,0.42375 0.42375,1.13001 0,1.55377 l -9.60515,9.60514 c -0.2825,0.2825 -0.565,0.35313 -0.77688,0.35313 -0.21188,0 -0.49438,-0.0706 -0.77689,-0.35313 l -8.82825,-8.96951 c -2.33066,-2.33066 -6.07384,-2.75441 -8.82826,-0.84751 -7.55698,5.08507 -15.96148,8.54575 -24.86036,10.3114 -3.2488,0.63564 -5.65009,3.5313 -5.65009,6.85073 v 12.50081 c 0,0.63563 -0.49438,1.13001 -1.13001,1.13001 h -13.63083 c -0.63563,0 -1.13002,-0.49438 -1.13002,-1.13001 v -12.50081 c 0,-3.31943 -2.33066,-6.21509 -5.65008,-6.85073 -8.89888,-1.76565 -17.30338,-5.22633 -24.86037,-10.3114 -2.75441,-1.83628 -6.49759,-1.48315 -8.82825,0.84751 l -8.82826,8.82826 c -0.2825,0.2825 -0.565,0.35313 -0.77688,0.35313 -0.21188,0 -0.49438,-0.0706 -0.77689,-0.35313 l -9.60514,-9.60514 c -0.2825,-0.28251 -0.35313,-0.56501 -0.35313,-0.77689 0,-0.21188 0.0706,-0.49438 0.35313,-0.77689 l 8.82826,-8.82825 c 2.33065,-2.33066 2.75441,-6.07384 0.84751,-8.82826 -5.08508,-7.55698 -8.54575,-15.96148 -10.3114,-24.86036 -0.63564,-3.2488 -3.53131,-5.65009 -6.85073,-5.65009 h -12.50081 c -0.63563,0 -1.13002,-0.49438 -1.13002,-1.13001 v -13.63083 c 0,-0.63563 0.49439,-1.13001 1.13002,-1.13001 h 12.50081 c 3.31942,0 6.21509,-2.33066 6.85073,-5.65009 1.76565,-8.89888 5.22632,-17.30338 10.3114,-24.86036 1.83627,-2.75442 1.48314,-6.4976 -0.84751,-8.82826 l -8.82826,-8.82825 c -0.2825,-0.28251 -0.35313,-0.56501 -0.35313,-0.77689 0,-0.21188 0.0706,-0.49438 0.35313,-0.77689 l 9.60514,-9.60514 c 0.28251,-0.2825 0.56501,-0.35313 0.77689,-0.35313 0.21188,0 0.49438,0.0706 0.77688,0.35313 l 8.82826,8.82826 c 2.33066,2.33066 6.07384,2.75441 8.82825,0.84751 7.55699,-5.08508 15.96149,-8.54575 24.86037,-10.3114 3.2488,-0.63564 5.65008,-3.5313 5.65008,-6.85073 V 88.676605 c 0,-0.635634 0.49439,-1.130016 1.13002,-1.130016 h 13.63083 c 0.63563,0 1.13001,0.494382 1.13001,1.130016 v 12.500805 c 0,3.31943 2.33066,6.2151 5.65009,6.85073 8.89888,1.76565 17.30338,5.22633 24.86036,10.3114 z"
   id="path164" />
         <path
   style="fill:#3c92ca;stroke-width:0.70626"
   d="m 274.21121,175.82914 c 0,22.88283 18.64528,41.52811 41.52811,41.52811 22.88284,0 41.52811,-18.64528 41.52811,-41.52811 0,-22.88284 -18.64527,-41.52811 -41.52811,-41.52811 -22.88283,0 -41.52811,18.64527 -41.52811,41.52811 z m 69.00164,0 c 0,15.1846 -12.35956,27.54415 -27.54415,27.54415 -15.1846,0 -27.54416,-12.35955 -27.54416,-27.54415 0,-15.1846 12.35956,-27.54416 27.54416,-27.54416 15.18459,0 27.54415,12.43019 27.54415,27.54416 z"
   id="path166" />
      </g>
   </g>
</svg>
