<?xml version="1.0" encoding="UTF-8" standalone="no"?>
<!-- Generator: Adobe Illustrator 18.0.0, SVG Export Plug-In . SVG Version: 6.00 Build 0)  -->

<svg
   version="1.1"
   id="Capa_1"
   x="0px"
   y="0px"
   viewBox="0 0 58 58"
   style="enable-background:new 0 0 58 58;"
   xml:space="preserve"
   sodipodi:docname="circuit-svgrepo-com (1).svg"
   inkscape:version="1.2-alpha1 (1:1.2.0-alpha1+devel+202203211746+a3054d06db)"
   xmlns:inkscape="http://www.inkscape.org/namespaces/inkscape"
   xmlns:sodipodi="http://sodipodi.sourceforge.net/DTD/sodipodi-0.dtd"
   xmlns="http://www.w3.org/2000/svg"
   xmlns:svg="http://www.w3.org/2000/svg"><defs
   id="defs69" /><sodipodi:namedview
   id="namedview67"
   pagecolor="#ffffff"
   bordercolor="#666666"
   borderopacity="1.0"
   inkscape:pageshadow="2"
   inkscape:pageopacity="0.0"
   inkscape:pagecheckerboard="0"
   inkscape:deskcolor="#d1d1d1"
   showgrid="false"
   inkscape:zoom="1.2162237"
   inkscape:cx="-7.8110633"
   inkscape:cy="36.999773"
   inkscape:window-width="1366"
   inkscape:window-height="714"
   inkscape:window-x="1920"
   inkscape:window-y="339"
   inkscape:window-maximized="1"
   inkscape:current-layer="Capa_1" />
<g
   id="g34">
	<path
   style="fill:#546A79;"
   d="M33,52c-0.256,0-0.512-0.098-0.707-0.293l-6-6c-0.391-0.391-0.391-1.023,0-1.414   s1.023-0.391,1.414,0l6,6c0.391,0.391,0.391,1.023,0,1.414C33.512,51.902,33.256,52,33,52z"
   id="path2" />
	<path
   style="fill:#546A79;"
   d="M27,58c-0.256,0-0.512-0.098-0.707-0.293c-0.391-0.391-0.391-1.023,0-1.414l6-6   c0.391-0.391,1.023-0.391,1.414,0s0.391,1.023,0,1.414l-6,6C27.512,57.902,27.256,58,27,58z"
   id="path4" />
	<g
   id="g14">
		<path
   style="fill:#546A79;"
   d="M13,15.5c-0.553,0-1-0.447-1-1V13c0-0.553,0.447-1,1-1s1,0.447,1,1v1.5    C14,15.053,13.553,15.5,13,15.5z"
   id="path6" />
		<path
   style="fill:#546A79;"
   d="M13,26.789c-0.553,0-1-0.447-1-1v-1.882c0-0.553,0.447-1,1-1s1,0.447,1,1v1.882    C14,26.342,13.553,26.789,13,26.789z M13,21.145c-0.553,0-1-0.447-1-1v-1.882c0-0.553,0.447-1,1-1s1,0.447,1,1v1.882    C14,20.697,13.553,21.145,13,21.145z"
   id="path8" />
		<path
   style="fill:#546A79;"
   d="M27.727,52h-1.882c-0.553,0-1-0.447-1-1s0.447-1,1-1h1.882c0.553,0,1,0.447,1,1    S28.279,52,27.727,52z M22.083,51.977c-0.023,0-0.048-0.001-0.071-0.003c-0.689-0.048-1.376-0.163-2.04-0.342    c-0.534-0.144-0.851-0.691-0.707-1.225c0.144-0.534,0.697-0.85,1.225-0.707c0.542,0.146,1.102,0.239,1.663,0.279    c0.551,0.038,0.966,0.517,0.927,1.067C23.042,51.574,22.604,51.977,22.083,51.977z M16.873,50.02c-0.21,0-0.422-0.066-0.603-0.203    c-0.829-0.628-1.561-1.37-2.177-2.206c-0.327-0.444-0.232-1.07,0.213-1.398c0.446-0.327,1.07-0.232,1.398,0.213    c0.501,0.682,1.098,1.286,1.772,1.798c0.44,0.333,0.527,0.961,0.193,1.4C17.475,49.883,17.176,50.02,16.873,50.02z M13.299,44.638    c-0.447,0-0.854-0.302-0.969-0.755c-0.168-0.667-0.273-1.354-0.313-2.045c-0.031-0.552,0.39-1.023,0.941-1.055    c0.542-0.03,1.023,0.39,1.055,0.941c0.032,0.563,0.118,1.124,0.256,1.668c0.135,0.535-0.189,1.079-0.725,1.215    C13.463,44.628,13.38,44.638,13.299,44.638z M13,39.019c-0.553,0-1-0.447-1-1v-1.882c0-0.553,0.447-1,1-1s1,0.447,1,1v1.882    C14,38.571,13.553,39.019,13,39.019z M13,33.374c-0.553,0-1-0.447-1-1v-2.822c0-0.553,0.447-1,1-1s1,0.447,1,1v2.822    C14,32.927,13.553,33.374,13,33.374z"
   id="path10" />
		<path
   style="fill:#546A79;"
   d="M33,52h-1.5c-0.553,0-1-0.447-1-1s0.447-1,1-1H33c0.553,0,1,0.447,1,1S33.553,52,33,52z"
   id="path12" />
	</g>
	<path
   style="fill:#546A79;"
   d="M31,14c-0.256,0-0.512-0.098-0.707-0.293l-6-6c-0.391-0.391-0.391-1.023,0-1.414   s1.023-0.391,1.414,0l6,6c0.391,0.391,0.391,1.023,0,1.414C31.512,13.902,31.256,14,31,14z"
   id="path16" />
	<path
   style="fill:#546A79;"
   d="M25,8c-0.256,0-0.512-0.098-0.707-0.293c-0.391-0.391-0.391-1.023,0-1.414l6-6   c0.391-0.391,1.023-0.391,1.414,0s0.391,1.023,0,1.414l-6,6C25.512,7.902,25.256,8,25,8z"
   id="path18" />
	<path
   style="fill:#546A79;"
   d="M45,46c-0.553,0-1-0.447-1-1V16.774C44,11.937,40.063,8,35.226,8H25c-0.553,0-1-0.447-1-1   s0.447-1,1-1h10.226C41.167,6,46,10.833,46,16.774V45C46,45.553,45.553,46,45,46z"
   id="path20" />
	<g
   id="g26"
   style="fill:#0093c4;fill-opacity:1">
		<circle
   style="fill:#0093c4;fill-opacity:1"
   cx="13"
   cy="7"
   r="6"
   id="circle22" />
		<path
   style="fill:#0093c4;fill-opacity:1"
   d="M13,14c-3.859,0-7-3.141-7-7s3.141-7,7-7s7,3.141,7,7S16.859,14,13,14z M13,2c-2.757,0-5,2.243-5,5    s2.243,5,5,5s5-2.243,5-5S15.757,2,13,2z"
   id="path24" />
	</g>
	<g
   id="g32"
   style="fill:#00b4d7;fill-opacity:1">
		<circle
   style="fill:#00b4d7;fill-opacity:1"
   cx="45"
   cy="51"
   r="6"
   id="circle28" />
		<path
   style="fill:#00b4d7;fill-opacity:1"
   d="M45,58c-3.859,0-7-3.141-7-7s3.141-7,7-7s7,3.141,7,7S48.859,58,45,58z M45,46    c-2.757,0-5,2.243-5,5s2.243,5,5,5s5-2.243,5-5S47.757,46,45,46z"
   id="path30" />
	</g>
</g>
<g
   id="g36">
</g>
<g
   id="g38">
</g>
<g
   id="g40">
</g>
<g
   id="g42">
</g>
<g
   id="g44">
</g>
<g
   id="g46">
</g>
<g
   id="g48">
</g>
<g
   id="g50">
</g>
<g
   id="g52">
</g>
<g
   id="g54">
</g>
<g
   id="g56">
</g>
<g
   id="g58">
</g>
<g
   id="g60">
</g>
<g
   id="g62">
</g>
<g
   id="g64">
</g>
</svg>
