<?xml version="1.0" encoding="utf-8"?>
<!-- Generator: Adobe Illustrator 19.2.0, SVG Export Plug-In . SVG Version: 6.00 Build 0)  -->
<svg xmlns="http://www.w3.org/2000/svg" xmlns:xlink="http://www.w3.org/1999/xlink" version="1.1" id="circuit" x="0px" y="0px" viewBox="0 0 224 196.1778" enable-background="new 0 0 224 196.1778" xml:space="preserve" width="512" height="512">
<g>
	<path fill="#D0E8FF" d="M24,96.1778c-8.8223,0-16,7.1777-16,16s7.1777,16,16,16s16-7.1777,16-16S32.8223,96.1778,24,96.1778z"/>
	<path fill="#D0E8FF" d="M52,32.1778c-8.8223,0-16,7.1777-16,16s7.1777,16,16,16s16-7.1777,16-16S60.8223,32.1778,52,32.1778z"/>
	<path fill="#D0E8FF" d="M200,116.1778c-8.8223,0-16,7.1777-16,16s7.1777,16,16,16s16-7.1777,16-16S208.8223,116.1778,200,116.1778z   "/>
	<path fill="#5CB0FF" d="M200,92.1778c8.8223,0,16-7.1777,16-16s-7.1777-16-16-16s-16,7.1777-16,16S191.1777,92.1778,200,92.1778z"/>
	<path fill="#1C71DA" d="M200,108.1778c-11.8689,0-21.7253,8.668-23.6387,20H160c-13.2344,0-24,10.7598-24,23.9863v44.0137h8   v-44.0137c0-8.8145,7.1777-15.9863,16-15.9863h16.3613c1.9133,11.332,11.7698,20,23.6387,20c13.2344,0,24-10.7656,24-24   S213.2344,108.1778,200,108.1778z M200,148.1778c-8.8223,0-16-7.1777-16-16s7.1777-16,16-16s16,7.1777,16,16   S208.8223,148.1778,200,148.1778z"/>
	<path fill="#1C71DA" d="M92,48.1778H76c0-13.2344-10.7656-24-24-24s-24,10.7656-24,24s10.7656,24,24,24   c10.426,0,19.2947-6.6934,22.5999-16H92c8.8223,0,16,7.1875,16,16.0234v123.9766h8V72.2012   C116,58.9551,105.2344,48.1778,92,48.1778z M52,64.1778c-8.8223,0-16-7.1777-16-16s7.1777-16,16-16s16,7.1777,16,16   S60.8223,64.1778,52,64.1778z"/>
	<path fill="#1C71DA" d="M64,108.1778H47.6387c-1.9133-11.332-11.7698-20-23.6387-20c-13.2344,0-24,10.7656-24,24s10.7656,24,24,24   c11.8689,0,21.7253-8.668,23.6387-20H64c8.8223,0,16,7.1836,16,16.0137v63.9863h8v-63.9863   C88,118.9512,77.2344,108.1778,64,108.1778z M24,128.1778c-8.8223,0-16-7.1777-16-16s7.1777-16,16-16s16,7.1777,16,16   S32.8223,128.1778,24,128.1778z"/>
	<path fill="#1C71DA" d="M163.4609,80.1778h12.9004c1.9133,11.332,11.7698,20,23.6387,20c13.2344,0,24-10.7656,24-24   s-10.7656-24-24-24c-11.8689,0-21.7253,8.668-23.6387,20h-12.9004c-6.2969,0-11.4199-5.125-11.4199-11.4258V0.1778h-8V60.752   C144.041,71.463,152.752,80.1778,163.4609,80.1778z M200,60.1778c8.8223,0,16,7.1777,16,16s-7.1777,16-16,16s-16-7.1777-16-16   S191.1777,60.1778,200,60.1778z"/>
</g>
<path fill="#FF5D5D" d="M136.2524,116.002c-1.0239,0-2.0474-0.3904-2.8286-1.1716c-1.562-1.562-1.562-4.0947,0-5.6567  l14.1421-14.1416c1.5635-1.5623,4.0957-1.562,5.6572,0c1.562,1.562,1.562,4.0947,0,5.6567l-14.1421,14.1416  C138.2998,115.6114,137.2759,116.002,136.2524,116.002z"/>
<path fill="#FF5D5D" d="M150.3945,116.0001c-1.0239,0-2.0474-0.3904-2.8286-1.1716l-14.1421-14.1426  c-1.562-1.562-1.562-4.0947,0-5.6567c1.5635-1.5623,4.0957-1.562,5.6572,0l14.1421,14.1426c1.562,1.562,1.562,4.0947,0,5.6567  C152.4419,115.6094,151.418,116.0001,150.3945,116.0001z"/>
<path fill="#00D40B" d="M38.2524,192.002c-7.7197,0-14-6.2803-14-14s6.2803-14,14-14s14,6.2803,14,14  S45.9722,192.002,38.2524,192.002z M38.2524,172.002c-3.3086,0-6,2.6917-6,6s2.6914,6,6,6s6-2.6917,6-6  S41.561,172.002,38.2524,172.002z"/>
<path fill="#FFC504" d="M123.5659,30.627c-1.0239,0-2.0474-0.3904-2.8286-1.1716l-11.3135-11.3135  c-1.562-1.562-1.562-4.0947,0-5.6567l11.3135-11.3135c1.5625-1.562,4.0952-1.5625,5.6567,0l11.314,11.3135  c0.7505,0.75,1.1719,1.7676,1.1719,2.8284s-0.4214,2.0784-1.1719,2.8284l-11.314,11.3135  C125.6133,30.2364,124.5894,30.627,123.5659,30.627z M117.9092,15.3135l5.6567,5.6567l5.6572-5.6567l-5.6572-5.6567  L117.9092,15.3135z"/>
</svg>
