<?xml version="1.0" encoding="UTF-8" standalone="no"?>
<!-- Generator: Adobe Illustrator 18.1.1, SVG Export Plug-In . SVG Version: 6.00 Build 0)  -->

<svg
   version="1.1"
   id="Capa_1"
   x="0px"
   y="0px"
   viewBox="0 0 30.19 30.19"
   style="enable-background:new 0 0 30.19 30.19;"
   xml:space="preserve"
   sodipodi:docname="clipboard-with-a-check-mark-svgrepo-com.svg"
   inkscape:version="1.2-alpha1 (1:1.2.0-alpha1+devel+202203211746+a3054d06db)"
   xmlns:inkscape="http://www.inkscape.org/namespaces/inkscape"
   xmlns:sodipodi="http://sodipodi.sourceforge.net/DTD/sodipodi-0.dtd"
   xmlns="http://www.w3.org/2000/svg"
   xmlns:svg="http://www.w3.org/2000/svg"><defs
   id="defs19978" /><sodipodi:namedview
   id="namedview19976"
   pagecolor="#ffffff"
   bordercolor="#666666"
   borderopacity="1.0"
   inkscape:pageshadow="2"
   inkscape:pageopacity="0.0"
   inkscape:pagecheckerboard="0"
   inkscape:deskcolor="#d1d1d1"
   showgrid="false"
   inkscape:zoom="18.648559"
   inkscape:cx="15.095"
   inkscape:cy="15.121812"
   inkscape:window-width="1366"
   inkscape:window-height="714"
   inkscape:window-x="1920"
   inkscape:window-y="339"
   inkscape:window-maximized="1"
   inkscape:current-layer="c182_note" />
<g
   id="g19943">
	<g
   id="c182_note">
		<path
   d="M23.824,1.904h-4.805v1.947h3.896c0.537,0,0.97,0.435,0.97,0.972v5.589v4.081v12.779c0,0.535-0.433,0.972-0.97,0.972    h-9.86h-0.802H7.28c-0.54,0-0.977-0.437-0.977-0.972V4.823c0-0.537,0.437-0.972,0.977-0.972h3.953V1.904h-4.93    c-1.073,0-1.947,0.869-1.947,1.948v24.393c0,1.076,0.874,1.945,1.947,1.945h4.726h4.145h8.65c1.076,0,2.01-0.869,2.01-1.945    V13.122v-2.156V3.852C25.834,2.773,24.9,1.904,23.824,1.904z"
   id="path19935"
   style="fill:#546a79;fill-opacity:1" />
		<path
   d="M10.546,4.962c-0.416,0-0.756,0.232-0.756,0.515c0,0.285,0,1.034,0,1.034h10.606c0,0,0-0.749,0-1.034    c0-0.282-0.34-0.515-0.752-0.515h-2.265v-4.22c-2.319-1.65-4.58-0.033-4.58-0.033l0.01,4.253H10.546z"
   id="path19937"
   style="fill:#0093c4;fill-opacity:1" />
		<path
   d="M22.329,13.781l-7.834,7.83c-0.196,0.197-0.517,0.197-0.711,0l-0.158-0.156l0,0l-0.172-0.17l-0.737-0.74l-0.012-0.018    l-3.389-3.41c-0.194-0.198-0.194-0.517,0-0.713l1.068-1.066c0.198-0.198,0.517-0.198,0.714,0l3.046,3.068L20.548,12    c0.197-0.196,0.516-0.196,0.712,0l1.068,1.069C22.524,13.264,22.524,13.584,22.329,13.781z"
   id="path19939"
   style="fill:#00b4d7;fill-opacity:1" />
	</g>
	<g
   id="Capa_1_168_">
	</g>
</g>
<g
   id="g19945">
</g>
<g
   id="g19947">
</g>
<g
   id="g19949">
</g>
<g
   id="g19951">
</g>
<g
   id="g19953">
</g>
<g
   id="g19955">
</g>
<g
   id="g19957">
</g>
<g
   id="g19959">
</g>
<g
   id="g19961">
</g>
<g
   id="g19963">
</g>
<g
   id="g19965">
</g>
<g
   id="g19967">
</g>
<g
   id="g19969">
</g>
<g
   id="g19971">
</g>
<g
   id="g19973">
</g>
</svg>
