<?xml version="1.0" encoding="UTF-8" standalone="no"?>
<!-- Generator: Adobe Illustrator 19.0.0, SVG Export Plug-In . SVG Version: 6.00 Build 0)  -->

<svg
   version="1.1"
   id="Layer_1"
   x="0px"
   y="0px"
   viewBox="0 0 490 490"
   style="enable-background:new 0 0 490 490;"
   xml:space="preserve"
   sodipodi:docname="io-36px.svg"
   inkscape:version="1.2-alpha1 (1:1.2.0-alpha1+devel+202203211746+a3054d06db)"
   xmlns:inkscape="http://www.inkscape.org/namespaces/inkscape"
   xmlns:sodipodi="http://sodipodi.sourceforge.net/DTD/sodipodi-0.dtd"
   xmlns="http://www.w3.org/2000/svg"
   xmlns:svg="http://www.w3.org/2000/svg"><defs
   id="defs2629" /><sodipodi:namedview
   id="namedview2627"
   pagecolor="#ffffff"
   bordercolor="#666666"
   borderopacity="1.0"
   inkscape:pageshadow="2"
   inkscape:pageopacity="0.0"
   inkscape:pagecheckerboard="0"
   inkscape:deskcolor="#d1d1d1"
   showgrid="false"
   inkscape:zoom="0.81245126"
   inkscape:cx="107.69877"
   inkscape:cy="275.70885"
   inkscape:window-width="1366"
   inkscape:window-height="714"
   inkscape:window-x="1920"
   inkscape:window-y="339"
   inkscape:window-maximized="1"
   inkscape:current-layer="Layer_1" />
   <g
   id="g3005"
   transform="matrix(0.76564344,0,0,0.76564344,57.417357,57.417357)">
      <g
   id="g3003">
         <path
   style="fill:#546a79;fill-opacity:1"
   d="m 340.2,263.8 c 46.3,-3.3 82.5,-42.9 82.5,-90.3 0,-41.2 -28,-77.7 -66.3,-87.8 C 348.2,36.4 305.8,0 254.9,0 218,0 183.8,20 165.6,51.6 c -3.5,-0.7 -7.2,-1 -10.8,-1 -31.1,0 -56.4,25.3 -56.4,56.4 0,4 0.4,7.9 1.2,11.7 -20.1,14.6 -32.3,38.2 -32.3,63.2 0,42.2 33.9,79.8 74,82 0.2,0 0.4,0 0.6,0 h 197.7 c 0.1,0 0.4,0 0.6,-0.1 z M 142.1,244.1 c -29.9,-1.8 -55,-30.2 -55,-62.2 0,-20.7 11.1,-40 29,-50.4 4.2,-2.4 6,-7.5 4.3,-12 -1.5,-3.9 -2.2,-8.1 -2.2,-12.5 0,-20.2 16.4,-36.6 36.6,-36.6 4.3,0 8.5,0.7 12.5,2.2 4.8,1.8 10.2,-0.4 12.4,-5.1 13.6,-29 43.2,-47.7 75.3,-47.7 43.1,0 78.7,32.3 82.8,75.1 0.4,4.5 3.8,8.1 8.2,8.8 32.5,5.6 57,35.6 57,69.8 0,36.3 -28.6,67.9 -63.8,70.6 H 142.1 Z"
   id="path2995" />
         <path
   style="fill:#3c92ca"
   d="m 245,297.3 c -5.5,0 -9.9,4.4 -9.9,9.9 v 116 c -13.7,4.2 -23.9,16.9 -24.2,31.8 -0.2,9.1 3.1,17.8 9.4,24.4 6.3,6.6 14.8,10.4 23.9,10.6 h 0.8 v 0 c 18.4,0 33.7,-15 34.1,-33.3 0.2,-9.1 -3.1,-17.8 -9.4,-24.4 -4.1,-4.3 -9.2,-7.4 -14.8,-9.1 v -116 c 0,-5.5 -4.4,-9.9 -9.9,-9.9 z M 255.4,446 c 2.6,2.8 4.1,6.4 4,10.2 -0.2,7.7 -6.6,14 -14.3,14 h -0.4 c -3.8,-0.1 -7.4,-1.7 -10,-4.4 -2.6,-2.8 -4.1,-6.4 -4,-10.2 0.2,-7.7 6.6,-14 14.3,-14 h 0.4 c 3.8,0 7.3,1.6 10,4.4 z"
   id="path2997" />
         <path
   style="fill:#3c92ca"
   d="m 181.4,307.2 v 55.5 c 0,9.6 -7.8,17.3 -17.3,17.3 h -29.2 c -4.3,-14 -17.3,-24.3 -32.7,-24.3 -18.8,0 -34.2,15.3 -34.2,34.2 0,18.9 15.3,34.2 34.2,34.2 15.4,0 28.4,-10.2 32.7,-24.3 h 29.2 c 20.5,0 37.1,-16.7 37.1,-37.1 v -55.5 c 0,-5.5 -4.4,-9.9 -9.9,-9.9 -5.4,0 -9.9,4.4 -9.9,9.9 z m -79.2,97.1 c -7.9,0 -14.4,-6.4 -14.4,-14.4 0,-8 6.4,-14.4 14.4,-14.4 7.9,0 14.4,6.4 14.4,14.4 0,8 -6.4,14.4 -14.4,14.4 z"
   id="path2999" />
         <path
   style="fill:#3c92ca"
   d="m 325.9,399.9 h 29.2 c 4.3,14 17.3,24.3 32.7,24.3 18.8,0 34.2,-15.3 34.2,-34.2 0,-18.9 -15.3,-34.2 -34.2,-34.2 -15.4,0 -28.4,10.2 -32.7,24.3 h -29.2 c -9.6,0 -17.3,-7.8 -17.3,-17.3 v -55.5 c 0,-5.5 -4.4,-9.9 -9.9,-9.9 -5.5,0 -9.9,4.4 -9.9,9.9 v 55.5 c 0,20.4 16.6,37.1 37.1,37.1 z m 61.9,-24.3 c 7.9,0 14.4,6.4 14.4,14.4 0,8 -6.4,14.4 -14.4,14.4 -8,0 -14.4,-6.4 -14.4,-14.4 0,-8 6.4,-14.4 14.4,-14.4 z"
   id="path3001" />
      </g>
   </g>
</svg>
